# Blender v2.93.4 OBJ File: 'pillar.blend'
# www.blender.org
mtllib pillar_mod.mtl
o Cube.002
v 1.000000 0.503620 -1.000000
v 1.000000 -0.503618 -1.000000
v 0.900624 0.503620 -0.900710
v 1.050128 0.503207 -1.051194
v 1.050128 0.410014 -1.051194
v 1.000000 0.410014 -1.000000
v 1.000000 0.503207 -1.000000
v 0.490925 6.976209 -0.900710
v 0.900624 6.976209 -0.490915
v 0.900624 0.857690 -0.900710
v 0.900624 1.282585 -0.490915
v 0.490925 1.282585 -0.900710
v -1.000000 0.503620 -1.000000
v -1.000000 -0.503618 -1.000000
v -0.900624 0.503620 -0.900710
v -1.050128 0.503207 -1.051194
v -1.050128 0.410014 -1.051194
v -1.000000 0.410014 -1.000000
v -1.000000 0.503207 -1.000000
v -0.490925 6.976209 -0.900710
v -0.900624 6.976209 -0.490915
v -0.900624 0.857690 -0.900710
v -0.900624 1.282585 -0.490915
v -0.490925 1.282585 -0.900710
v 0.000000 0.503620 -1.000000
v 0.000000 -0.503618 -1.000000
v 0.000000 0.503207 -1.051194
v 0.000000 6.976209 -0.900710
v 0.000000 0.503620 -0.900710
v 0.000000 0.410014 -1.051194
v 0.000000 0.410014 -1.000000
v 0.000000 0.503207 -1.000000
v 1.000000 0.503620 1.000000
v 1.000000 -0.503618 1.000000
v 0.900624 0.503620 0.900710
v 1.050128 0.503207 1.051194
v 1.050128 0.410014 1.051194
v 1.000000 0.410014 1.000000
v 1.000000 0.503207 1.000000
v 0.490925 6.976209 0.900710
v 0.900624 6.976209 0.490915
v 0.900624 0.857690 0.900710
v 0.900624 1.282585 0.490915
v 0.490925 1.282585 0.900710
v -1.000000 0.503620 1.000000
v -1.000000 -0.503618 1.000000
v -0.900624 0.503620 0.900710
v -1.050128 0.503207 1.051194
v -1.050128 0.410014 1.051194
v -1.000000 0.410014 1.000000
v -1.000000 0.503207 1.000000
v -0.490925 6.976209 0.900710
v -0.900624 6.976209 0.490915
v -0.900624 0.857690 0.900710
v -0.900624 1.282585 0.490915
v -0.490925 1.282585 0.900710
v 0.000000 0.503620 1.000000
v 0.000000 -0.503618 1.000000
v 0.000000 0.503207 1.051194
v 0.000000 6.976209 0.900710
v 0.000000 0.503620 0.900710
v 0.000000 0.410014 1.051194
v 0.000000 0.410014 1.000000
v 0.000000 0.503207 1.000000
v 1.000000 -0.503618 0.000000
v 0.900624 0.503620 0.000000
v 1.050128 0.503207 0.000000
v 1.000000 0.410014 0.000000
v 1.000000 0.503207 0.000000
v 0.900624 6.976209 0.000000
v 1.000000 0.503620 0.000000
v 1.050128 0.410014 0.000000
v 0.000000 6.976209 0.000000
v 0.000000 -0.503618 0.000000
v -1.000000 -0.503618 0.000000
v -0.900624 0.503620 0.000000
v -1.050128 0.503207 0.000000
v -1.000000 0.410014 0.000000
v -1.000000 0.503207 0.000000
v -0.900624 6.976209 0.000000
v -1.000000 0.503620 0.000000
v -1.050128 0.410014 0.000000
vt 0.993045 0.468769
vt 0.952755 0.630201
vt 0.952755 0.468769
vt 0.322865 0.339394
vt 0.322883 0.500842
vt 0.322865 0.500842
vt 0.000000 0.169697
vt 0.008093 0.008264
vt 0.008093 0.169697
vt 0.995890 0.799742
vt 1.000000 0.630201
vt 1.000000 0.799742
vt 0.678164 0.224653
vt 0.929246 0.290808
vt 0.678164 0.290808
vt 0.794237 0.987163
vt 0.860382 0.921009
vt 0.860382 0.987163
vt 0.570868 0.807693
vt 0.570868 0.886952
vt 0.319785 0.886952
vt 0.169541 0.000000
vt 0.169541 0.008264
vt 0.651448 0.823737
vt 0.611158 0.662290
vt 0.651448 0.662290
vt 0.947381 0.630201
vt 0.987671 0.791634
vt 0.947381 0.791634
vt 0.322865 0.662290
vt 0.330989 0.008264
vt 0.339082 0.169697
vt 0.330989 0.169697
vt 1.000000 0.969283
vt 0.251082 0.662290
vt 0.000000 0.728444
vt 0.000000 0.662290
vt 0.926527 0.987163
vt 0.860382 0.987163
vt 0.860382 0.921009
vt 0.319785 0.728435
vt 0.285434 0.807693
vt 0.339082 0.000000
vt 0.611158 0.985185
vt 0.651448 0.985185
vt 0.339082 0.500826
vt 0.339064 0.339394
vt 0.339082 0.339394
vt 0.347175 0.008264
vt 0.339082 0.169697
vt 0.339082 0.000000
vt 0.991781 0.799898
vt 0.987671 0.630201
vt 0.991781 0.630201
vt 0.251082 0.728444
vt 0.285434 0.662290
vt 0.285434 0.807693
vt 0.645918 0.646245
vt 0.661947 0.500842
vt 0.661947 0.662290
vt 0.161433 0.500842
vt 0.322865 0.339394
vt 0.322865 0.500842
vt 0.728101 0.339394
vt 0.807351 0.339394
vt 0.807351 0.484798
vt 0.807351 0.630201
vt 0.728101 0.630201
vt 0.322901 0.662259
vt 0.322920 0.500826
vt 0.322920 0.662259
vt 0.678164 0.169697
vt 0.670071 0.169697
vt 0.670071 0.008264
vt 0.991781 0.969595
vt 0.995890 0.799898
vt 0.995890 0.969595
vt 0.929246 0.224653
vt 0.678164 0.145404
vt 0.963598 0.145404
vt 0.645918 0.355438
vt 0.500514 0.339394
vt 0.661947 0.339394
vt 0.322865 0.662290
vt 0.952755 0.307336
vt 0.322901 0.500842
vt 0.322883 0.662290
vt 0.322883 0.500842
vt 0.008093 0.331129
vt 0.997154 0.630201
vt 0.993045 0.460660
vt 0.997154 0.460660
vt 0.929246 0.000000
vt 0.678164 0.066154
vt 0.678164 0.000000
vt 0.728092 0.987163
vt 0.661947 0.987163
vt 0.661947 0.921009
vt 0.696298 0.696346
vt 0.947381 0.775605
vt 0.661947 0.775605
vt 0.169541 0.339394
vt 0.000000 0.339394
vt 0.570868 0.985185
vt 0.611158 0.823737
vt 0.611158 0.985185
vt 0.947381 0.953066
vt 0.322883 0.339394
vt 0.330989 0.331129
vt 0.997154 0.291119
vt 0.000000 0.886943
vt 0.251082 0.953097
vt 0.000000 0.953097
vt 0.728092 0.987163
vt 0.794237 0.921009
vt 0.794237 0.987163
vt 0.947381 0.854864
vt 0.696298 0.854864
vt 0.169541 0.331129
vt 0.570868 0.662290
vt 0.611158 0.662290
vt 0.339064 0.662259
vt 0.339082 0.662259
vt 0.347175 0.169697
vt 0.347175 0.331129
vt 0.987671 0.969595
vt 0.991781 0.969595
vt 0.251082 0.886943
vt 0.000000 0.807693
vt 0.355111 0.646245
vt 0.500514 0.662290
vt 0.000000 0.339394
vt 0.000000 0.500842
vt 0.886600 0.339394
vt 0.886600 0.630201
vt 0.322901 0.339394
vt 0.322920 0.339394
vt 0.670071 0.331129
vt 0.678164 0.339394
vt 0.991781 0.630201
vt 0.995890 0.630201
vt 0.929246 0.066154
vt 0.963598 0.000000
vt 0.355111 0.355438
vt 0.339082 0.500842
vt 0.339082 0.339394
vt 0.000000 0.662290
vt 0.993045 0.630201
vt 0.322883 0.339394
vt 0.000000 0.000000
vt 0.995890 0.630201
vt 0.301048 0.953097
vt 0.285434 0.953097
vt 0.611158 0.823737
vt 0.987671 0.630201
vt 0.322883 0.662290
vt 0.995890 0.969283
vt 0.301048 0.662290
vt 0.570868 0.728435
vt 0.339064 0.500826
vt 0.508623 0.000000
vt 0.508623 0.008264
vt 0.987671 0.799898
vt 0.269820 0.662290
vt 0.645918 0.500842
vt 0.500514 0.646245
vt 0.161433 0.339394
vt 0.661947 0.484798
vt 0.661947 0.405539
vt 0.661947 0.564056
vt 0.322901 0.500826
vt 0.678164 0.000000
vt 0.991781 0.799898
vt 0.963598 0.290808
vt 0.947984 0.290808
vt 0.500514 0.355438
vt 0.161433 0.662290
vt 0.993045 0.307336
vt 0.322901 0.662290
vt 0.993045 0.630201
vt 0.661947 0.630201
vt 0.677561 0.630201
vt 0.947381 0.696346
vt 0.570868 0.823737
vt 0.987671 0.953066
vt 0.322901 0.339394
vt 0.339082 0.339394
vt 0.993045 0.291119
vt 0.677561 0.921009
vt 0.661947 0.921009
vt 0.508623 0.331129
vt 0.508623 0.339394
vt 0.339082 0.339394
vt 0.285434 0.953097
vt 0.269820 0.953097
vt 0.355111 0.500842
vt 0.952755 0.405539
vt 0.952755 0.484798
vt 0.952755 0.564056
vt 0.947984 0.000000
vn 1.0000 0.0000 0.0000
vn 0.0000 0.0000 -1.0000
vn 0.0000 1.0000 0.0000
vn 0.7072 0.0000 -0.7070
vn 0.5843 0.5634 -0.5841
vn -1.0000 0.0000 0.0000
vn -0.7072 0.0000 -0.7070
vn -0.5843 0.5634 -0.5841
vn 0.0000 -1.0000 0.0000
vn 0.0000 0.0000 1.0000
vn 0.7072 0.0000 0.7070
vn 0.5843 0.5634 0.5841
vn -0.7072 0.0000 0.7070
vn -0.5843 0.5634 0.5841
usemtl Material.002
s off
f 65/1/1 6/2/1 68/3/1
f 1/4/2 32/5/2 25/6/2
f 67/7/3 7/8/3 69/9/3
f 27/10/2 5/11/2 30/12/2
f 9/13/4 12/14/4 8/15/4
f 12/16/5 11/17/5 10/18/5
f 28/19/2 8/20/2 12/21/2
f 7/8/3 27/22/3 32/23/3
f 26/24/2 6/25/2 2/26/2
f 18/27/6 75/28/6 78/29/6
f 32/5/2 13/30/2 25/6/2
f 19/31/3 77/32/3 79/33/3
f 17/34/2 27/10/2 30/12/2
f 24/35/7 21/36/7 20/37/7
f 24/38/8 22/39/8 23/40/8
f 24/41/2 28/19/2 29/42/2
f 19/31/3 27/22/3 16/43/3
f 18/44/2 26/24/2 14/45/2
f 79/46/6 13/47/6 19/48/6
f 18/49/9 82/50/9 17/51/9
f 82/52/6 16/53/6 17/54/6
f 23/55/6 15/56/6 76/57/6
f 15/58/3 25/59/3 13/60/3
f 74/61/9 14/62/9 26/63/9
f 21/64/3 80/65/3 73/66/3
f 73/66/3 70/67/3 9/68/3
f 1/69/1 69/70/1 7/71/1
f 72/72/9 68/73/9 6/74/9
f 4/75/1 72/76/1 5/77/1
f 11/78/1 70/79/1 66/80/1
f 3/81/3 71/82/3 1/83/3
f 2/84/9 74/61/9 26/63/9
f 38/85/1 65/1/1 68/3/1
f 64/86/10 33/87/10 57/88/10
f 39/89/3 67/7/3 69/9/3
f 37/90/10 59/91/10 62/92/10
f 44/93/11 41/94/11 40/95/11
f 44/96/12 42/97/12 43/98/12
f 44/99/10 60/100/10 61/101/10
f 39/89/3 59/102/3 36/103/3
f 38/104/10 58/105/10 34/106/10
f 75/28/6 50/107/6 78/29/6
f 45/108/10 64/86/10 57/88/10
f 77/32/3 51/109/3 79/33/3
f 59/91/10 49/110/10 62/92/10
f 53/111/13 56/112/13 52/113/13
f 56/114/14 55/115/14 54/116/14
f 60/100/10 52/117/10 56/118/10
f 51/109/3 59/102/3 64/119/3
f 58/105/10 50/120/10 46/121/10
f 45/122/6 79/46/6 51/123/6
f 82/50/9 78/124/9 50/125/9
f 48/126/6 82/52/6 49/127/6
f 55/128/6 80/129/6 76/57/6
f 47/130/3 81/131/3 45/122/3
f 46/132/9 74/61/9 58/133/9
f 73/66/3 80/65/3 53/134/3
f 41/135/3 70/67/3 73/66/3
f 69/70/1 33/136/1 39/137/1
f 38/138/9 72/72/9 37/139/9
f 72/76/1 36/140/1 37/141/1
f 43/142/1 35/143/1 66/80/1
f 35/144/3 57/145/3 33/146/3
f 74/61/9 34/147/9 58/133/9
f 65/1/1 2/148/1 6/2/1
f 1/4/2 7/149/2 32/5/2
f 67/7/3 4/150/3 7/8/3
f 27/10/2 4/151/2 5/11/2
f 9/13/4 11/78/4 12/14/4
f 10/152/2 3/153/2 12/21/2
f 3/153/2 29/42/2 12/21/2
f 29/42/2 28/19/2 12/21/2
f 7/8/3 4/150/3 27/22/3
f 26/24/2 31/154/2 6/25/2
f 18/27/6 14/155/6 75/28/6
f 32/5/2 19/156/2 13/30/2
f 19/31/3 16/43/3 77/32/3
f 17/34/2 16/157/2 27/10/2
f 24/35/7 23/55/7 21/36/7
f 29/42/2 15/56/2 24/41/2
f 15/56/2 22/158/2 24/41/2
f 24/41/2 20/159/2 28/19/2
f 19/31/3 32/23/3 27/22/3
f 18/44/2 31/154/2 26/24/2
f 79/46/6 81/160/6 13/47/6
f 17/51/9 30/161/9 18/49/9
f 30/161/9 31/162/9 18/49/9
f 18/49/9 78/124/9 82/50/9
f 82/52/6 77/163/6 16/53/6
f 80/129/6 21/36/6 23/55/6
f 23/55/6 22/164/6 15/56/6
f 76/57/6 80/129/6 23/55/6
f 15/58/3 29/165/3 25/59/3
f 13/60/3 81/131/3 15/58/3
f 81/131/3 76/166/3 15/58/3
f 74/61/9 75/167/9 14/62/9
f 28/168/3 20/169/3 73/66/3
f 20/169/3 21/64/3 73/66/3
f 9/68/3 8/170/3 73/66/3
f 8/170/3 28/168/3 73/66/3
f 1/69/1 71/171/1 69/70/1
f 31/162/9 30/161/9 6/74/9
f 30/161/9 5/172/9 6/74/9
f 5/172/9 72/72/9 6/74/9
f 4/75/1 67/173/1 72/76/1
f 11/78/1 9/13/1 70/79/1
f 66/80/1 3/174/1 11/78/1
f 3/174/1 10/175/1 11/78/1
f 3/81/3 66/176/3 71/82/3
f 1/83/3 25/59/3 3/81/3
f 25/59/3 29/165/3 3/81/3
f 2/84/9 65/177/9 74/61/9
f 38/85/1 34/178/1 65/1/1
f 64/86/10 39/179/10 33/87/10
f 39/89/3 36/103/3 67/7/3
f 37/90/10 36/180/10 59/91/10
f 44/93/11 43/142/11 41/94/11
f 61/101/10 35/181/10 44/99/10
f 35/181/10 42/182/10 44/99/10
f 44/99/10 40/183/10 60/100/10
f 39/89/3 64/119/3 59/102/3
f 38/104/10 63/184/10 58/105/10
f 75/28/6 46/185/6 50/107/6
f 45/108/10 51/186/10 64/86/10
f 77/32/3 48/187/3 51/109/3
f 59/91/10 48/188/10 49/110/10
f 53/111/13 55/128/13 56/112/13
f 54/189/10 47/190/10 56/118/10
f 47/190/10 61/101/10 56/118/10
f 61/101/10 60/100/10 56/118/10
f 51/109/3 48/187/3 59/102/3
f 58/105/10 63/184/10 50/120/10
f 45/122/6 81/160/6 79/46/6
f 63/191/9 62/192/9 50/125/9
f 62/192/9 49/193/9 50/125/9
f 49/193/9 82/50/9 50/125/9
f 48/126/6 77/163/6 82/52/6
f 55/128/6 53/111/6 80/129/6
f 76/57/6 47/194/6 55/128/6
f 47/194/6 54/195/6 55/128/6
f 47/130/3 76/166/3 81/131/3
f 45/122/3 57/145/3 47/130/3
f 57/145/3 61/196/3 47/130/3
f 46/132/9 75/167/9 74/61/9
f 53/134/3 52/197/3 73/66/3
f 52/197/3 60/198/3 73/66/3
f 60/198/3 40/199/3 73/66/3
f 40/199/3 41/135/3 73/66/3
f 69/70/1 71/171/1 33/136/1
f 37/139/9 62/192/9 38/138/9
f 62/192/9 63/191/9 38/138/9
f 38/138/9 68/73/9 72/72/9
f 72/76/1 67/173/1 36/140/1
f 70/79/1 41/94/1 43/142/1
f 43/142/1 42/200/1 35/143/1
f 66/80/1 70/79/1 43/142/1
f 35/144/3 61/196/3 57/145/3
f 33/146/3 71/82/3 35/144/3
f 71/82/3 66/176/3 35/144/3
f 74/61/9 65/177/9 34/147/9
