# Blender v2.93.4 OBJ File: 'sarco.blend'
# www.blender.org
mtllib sarco_mod.mtl
o Cube
v 1.153838 -0.084583 -0.545067
v 1.153838 0.084583 -0.545067
v 1.153838 -0.084583 0.545067
v 1.153838 0.084583 0.545067
v -1.153838 -0.084583 -0.545067
v -1.153838 0.084583 -0.545067
v -1.153838 -0.084583 0.545067
v -1.153838 0.084583 0.545067
v 1.102253 0.854776 -0.494355
v 1.102253 0.854776 0.494355
v -1.102253 0.854776 -0.494355
v -1.102253 0.854776 0.494355
v 1.102253 0.084583 0.494355
v 1.102253 0.084583 -0.494355
v -1.102253 0.084583 0.494355
v -1.102253 0.084583 -0.494355
v 1.153838 0.642667 -0.545067
v 1.153838 0.811833 -0.545067
v 1.153838 0.642667 0.545067
v 1.153838 0.811833 0.545067
v -1.153838 0.642667 -0.545067
v -1.153838 0.811833 -0.545067
v -1.153838 0.642667 0.545067
v -1.153838 0.811833 0.545067
v -1.102253 0.811833 0.494355
v -1.102253 0.642667 0.494355
v 1.102253 0.811833 0.494355
v 1.102253 0.642667 0.494355
v -1.102253 0.811833 -0.494355
v -1.102253 0.642667 -0.494355
v 1.102253 0.811833 -0.494355
v 1.102253 0.642667 -0.494355
vt 0.566141 0.811286
vt 0.377427 0.811286
vt 0.377427 1.000000
vt 0.377427 0.811286
vt 0.188714 0.811286
vt 0.188714 1.000000
vt 0.000000 0.811286
vt 0.754855 0.811286
vt 0.759073 0.802508
vt 0.759073 0.631351
vt 0.943568 0.622573
vt 0.939350 0.631352
vt 0.943568 0.811286
vt 0.891580 0.566141
vt 0.891580 0.377427
vt 0.702866 0.377427
vt 0.754855 1.000000
vt 0.754855 0.811286
vt 0.566141 0.811286
vt 0.939485 0.000000
vt 0.891580 0.000000
vt 0.891580 0.180277
vt 0.180277 0.622573
vt 0.180277 0.000000
vt 0.000000 0.000000
vt 0.702866 0.622573
vt 0.702866 0.000000
vt 0.531710 0.000000
vt 0.939485 0.531710
vt 0.939485 0.360554
vt 0.891580 0.360554
vt 0.926011 0.991563
vt 0.926011 0.811286
vt 0.754855 0.811286
vt 0.973916 0.811286
vt 0.926011 0.811286
vt 0.926011 0.982442
vt 0.531710 0.622573
vt 0.531710 0.000000
vt 0.360554 0.000000
vt 0.180277 0.622573
vt 0.360554 0.622573
vt 0.360554 0.000000
vt 0.939485 0.180277
vt 0.891580 0.180277
vt 0.702866 0.377427
vt 0.707084 0.368649
vt 0.707084 0.197492
vt 0.891580 0.188714
vt 0.887361 0.197492
vt 0.891580 0.377427
vt 0.754855 0.811287
vt 0.754855 0.622573
vt 0.566141 0.622573
vt 0.566141 0.811287
vt 0.377427 0.622573
vt 0.000000 0.811286
vt 0.004218 0.802508
vt 0.004218 0.631351
vt 0.188714 0.622573
vt 0.184495 0.631351
vt 0.188714 0.811286
vt 0.377427 0.811287
vt 0.377427 0.622573
vt 0.188714 0.622573
vt 0.891580 0.000000
vt 0.702866 0.000000
vt 0.566141 1.000000
vt 0.000000 1.000000
vt 0.754855 0.622573
vt 0.939350 0.802508
vt 0.702866 0.566141
vt 0.566141 1.000000
vt 0.939485 0.180277
vt 0.000000 0.622573
vt 0.531710 0.622573
vt 0.891580 0.531710
vt 0.754855 0.991563
vt 0.973916 0.982442
vt 0.360554 0.622573
vt 0.180277 0.000000
vt 0.702866 0.188714
vt 0.887361 0.368649
vt 0.377427 0.811287
vt 0.000000 0.622573
vt 0.184495 0.802508
vt 0.188714 0.811287
vn 0.0000 -1.0000 0.0000
vn 0.0000 0.0000 1.0000
vn -1.0000 0.0000 0.0000
vn 0.0000 1.0000 0.0000
vn 1.0000 0.0000 0.0000
vn 0.0000 0.0000 -1.0000
usemtl Material
s off
f 5/1/1 1/2/1 3/3/1
f 3/3/2 4/4/2 8/5/2
f 7/6/3 8/5/3 6/7/3
f 8/8/4 15/9/4 16/10/4
f 2/11/4 14/12/4 4/13/4
f 1/14/5 2/15/5 4/16/5
f 5/17/6 6/18/6 2/19/6
f 12/20/2 25/21/2 27/22/2
f 13/23/2 28/24/2 26/25/2
f 15/26/3 26/27/3 30/28/3
f 12/29/3 11/30/3 29/31/3
f 9/32/4 11/33/4 12/34/4
f 10/35/5 27/36/5 31/37/5
f 14/38/5 32/39/5 28/40/5
f 14/41/6 16/42/6 30/43/6
f 11/30/6 9/44/6 31/45/6
f 19/46/1 28/47/1 32/48/1
f 21/49/1 30/50/1 23/51/1
f 19/52/2 20/53/2 24/54/2
f 23/55/3 24/54/3 22/56/3
f 24/57/4 25/58/4 29/59/4
f 18/60/4 31/61/4 20/62/4
f 17/63/5 18/64/5 20/65/5
f 21/49/6 22/66/6 18/67/6
f 5/1/1 3/3/1 7/68/1
f 3/3/2 8/5/2 7/6/2
f 7/6/3 6/7/3 5/69/3
f 8/8/4 16/10/4 6/70/4
f 16/10/4 2/11/4 6/70/4
f 4/13/4 15/9/4 8/8/4
f 4/13/4 13/71/4 15/9/4
f 14/12/4 2/11/4 16/10/4
f 4/13/4 14/12/4 13/71/4
f 1/14/5 4/16/5 3/72/5
f 5/17/6 2/19/6 1/73/6
f 12/20/2 27/22/2 10/74/2
f 13/23/2 26/25/2 15/75/2
f 15/26/3 30/28/3 16/76/3
f 12/29/3 29/31/3 25/77/3
f 9/32/4 12/34/4 10/78/4
f 10/35/5 31/37/5 9/79/5
f 14/38/5 28/40/5 13/80/5
f 14/41/6 30/43/6 32/81/6
f 11/30/6 31/45/6 29/31/6
f 19/46/1 32/48/1 17/82/1
f 30/50/1 17/82/1 32/48/1
f 23/51/1 28/47/1 19/46/1
f 23/51/1 26/83/1 28/47/1
f 30/50/1 21/49/1 17/82/1
f 23/51/1 30/50/1 26/83/1
f 19/52/2 24/54/2 23/55/2
f 23/55/3 22/56/3 21/84/3
f 24/57/4 29/59/4 22/85/4
f 31/61/4 22/85/4 29/59/4
f 20/62/4 25/58/4 24/57/4
f 20/62/4 27/86/4 25/58/4
f 31/61/4 18/60/4 22/85/4
f 20/62/4 31/61/4 27/86/4
f 17/63/5 20/65/5 19/87/5
f 21/49/6 18/67/6 17/82/6
