# Blender v2.93.4 OBJ File: 'tomb_stairs.blend'
# www.blender.org
mtllib tomb_stairs_mod.mtl
o Cube
v -1.000002 -1.000002 1.000002
v -0.496550 0.493038 1.000002
v 0.496776 -0.515342 1.000002
v 1.000000 -1.000002 1.000002
v -1.000002 1.000015 -1.000000
v -0.496550 0.999999 1.000002
v -1.000002 1.000072 1.000002
v -0.709489 0.999564 0.775161
v -0.568395 0.999976 0.820861
v -0.590806 0.986886 0.694480
v -0.570053 0.997447 0.502591
v -0.572153 0.999651 0.072674
v -0.195605 0.493089 0.999708
v -0.496564 0.493054 0.115693
v -0.231273 0.490300 0.715135
v -0.018754 0.315657 1.000002
v -0.189394 0.493038 0.820707
v -0.049786 0.470554 0.979510
v -0.077442 0.489883 0.789942
v 0.000439 0.488976 0.496123
v -0.496550 0.820707 0.778620
v -0.496550 1.000000 0.820707
v -0.522943 0.945391 0.694452
v -0.496670 0.829306 0.544626
v -0.510759 0.968766 0.568182
v -0.224205 0.492069 -0.036438
v -0.058824 0.497195 0.171908
v -0.496093 1.002272 0.364064
v -0.495272 0.851241 -0.081054
v -0.502061 0.993064 -0.008851
v 0.003435 -0.014195 -1.000000
v -1.000002 -1.000002 -1.000000
v -0.496550 1.000000 -1.000000
v -0.496269 0.493122 -0.189452
v -0.266797 0.485840 -0.221554
v -0.483355 0.500086 -0.338136
v -0.281511 0.493282 -0.516497
v -0.058017 0.501629 -0.140881
v -0.063131 0.493038 -0.315657
v -0.066541 0.492812 -0.458441
v -0.497786 0.579730 -0.044848
v -0.486583 0.569652 -0.193597
v -0.489570 0.688962 -0.272736
v -0.496985 0.999888 -0.251185
v -0.493846 0.578114 -0.319843
v -0.495714 0.787694 -0.358413
v -0.496360 0.494067 -0.576556
v -0.076666 0.489980 -0.747270
v -0.496550 0.493038 -1.000000
v 0.496091 -0.014245 0.455034
v 0.496558 -0.192255 0.279057
v 0.496784 -0.014132 1.000002
v 0.003435 -0.014195 1.000002
v 0.496410 -0.328439 -0.121524
v 0.325138 -0.014486 0.301486
v 0.490490 -0.021527 0.315637
v 0.497181 -0.515344 -0.385017
v 0.314884 -0.014293 -0.027743
v 0.491316 -0.199427 0.007079
v 0.440547 -0.071303 0.183081
v 0.441371 -0.068339 0.057713
v 1.000000 -0.515342 1.000002
v 0.999977 -0.683922 -0.397033
v 0.004152 0.319610 0.999831
v 0.013402 0.474810 0.983892
v -0.003556 0.488916 0.821925
v 0.003416 0.317036 0.589361
v -0.006024 0.480307 0.696154
v 0.003244 0.492678 0.349472
v 0.003437 0.211231 0.072297
v 0.000831 0.489148 0.189558
v -0.008529 0.477566 0.061773
v 0.003316 -0.012879 -0.003256
v 0.003469 -0.014999 -0.262311
v 0.261663 -0.014639 -0.452270
v 0.483064 -0.028088 -0.137590
v 0.505903 -0.187544 -0.192048
v 0.503698 -0.229102 -0.347357
v 0.262876 -0.024687 -0.293253
v 0.496490 -0.014061 -0.411124
v 0.496772 -0.515342 -1.000000
v 1.000000 -1.000002 -1.000000
v 0.003246 -0.014018 -0.579750
v 0.502985 -0.248430 -0.459745
v 0.497043 -0.319715 -0.693232
v 0.496772 -0.014195 -1.000000
v 0.847012 -0.515275 -0.358672
v 0.496971 -0.515241 -0.546875
v 1.000000 -0.515342 -0.315657
v 0.955914 -0.559381 -0.441919
v 0.820692 -0.516147 -0.568182
v 0.880471 -0.515342 -0.694444
v 0.999674 -0.680970 -0.616092
v 0.944818 -0.570545 -0.568182
v 1.000000 -0.515342 -0.694444
v 1.000000 -0.515342 -1.000000
v 0.010469 0.190604 -0.106331
v -0.004014 0.485793 -0.157666
v 0.011577 0.336255 -0.263311
v -0.006229 0.059160 -0.314472
v 0.004760 0.189271 -0.315411
v -0.000371 0.492418 -0.437880
v 0.003435 0.315657 -0.441919
v 0.003417 0.313802 -0.775243
v -0.015665 0.448063 -0.568183
v -0.017970 0.444346 -0.694450
v 0.003412 0.492979 -1.000000
v 0.003340 0.492792 -0.820766
vt 0.333331 0.333333
vt 0.666662 0.666664
vt 0.333331 0.666664
vt 0.000000 0.666667
vt 0.083867 0.585895
vt 0.333318 0.666598
vt 0.166086 0.502376
vt 0.249413 0.417843
vt 0.848667 0.512112
vt 0.871521 0.629191
vt 0.848298 0.583764
vt 0.836161 0.458136
vt 0.919870 0.333331
vt 0.668486 0.000006
vt 0.715905 0.080586
vt 0.681785 0.042126
vt 0.499427 0.248828
vt 0.499424 0.164300
vt 0.582754 0.248838
vt 0.667037 0.666664
vt 0.702399 0.559733
vt 0.751464 0.666662
vt 0.751294 0.596088
vt 0.737314 0.553304
vt 0.469429 0.853585
vt 0.446751 0.786822
vt 0.500559 0.666664
vt 0.333399 0.897503
vt 0.333332 0.666669
vt 0.417074 0.666664
vt 0.417073 0.999995
vt 0.333331 1.000000
vt 0.397183 0.949071
vt 0.836034 0.333331
vt 0.751618 0.403393
vt 0.751572 0.333352
vt 0.333318 0.333343
vt 0.836089 0.666666
vt 0.848045 0.636809
vt 0.851654 0.615743
vt 0.174925 0.421526
vt 0.199258 0.417844
vt 0.169784 0.447415
vt 0.696896 0.370229
vt 0.675958 0.384254
vt 0.667037 0.363216
vt 0.706358 0.160595
vt 0.668515 0.224916
vt 0.678885 0.195322
vt 0.691819 0.513507
vt 0.668156 0.501473
vt 0.666662 0.439322
vt 0.751461 0.480714
vt 0.695463 0.409228
vt 0.836089 0.636784
vt 0.836034 0.560678
vt 0.707520 0.285856
vt 0.668948 0.249357
vt 0.672145 0.405301
vt 0.838166 0.594691
vt 0.751464 0.333331
vt 0.666662 0.000000
vt 0.666662 0.333333
vt 0.678791 0.143192
vt 0.713388 0.129741
vt 0.667053 0.541863
vt 0.718882 0.545454
vt 0.751686 0.000000
vt 0.751665 0.070573
vt 0.836943 0.498524
vt 0.749557 0.110311
vt 0.750377 0.556354
vt 0.083865 0.502383
vt 0.417090 0.666666
vt 0.582689 0.666664
vt 0.582576 0.757492
vt 0.500591 0.666669
vt 0.418279 0.780725
vt 0.417103 0.757493
vt 0.581711 0.780725
vt 0.554130 0.783084
vt 0.426239 0.802811
vt 0.447910 0.832151
vt 0.425751 0.823705
vt 0.000000 0.585912
vt 0.833015 0.663976
vt 0.807230 0.666640
vt 0.835470 0.636983
vt 0.834047 0.616022
vt 0.806791 0.598229
vt 0.835441 0.582683
vt 0.789152 0.512057
vt 0.833584 0.510294
vt 0.835456 0.531589
vt 0.836034 0.558241
vt 0.500605 0.877053
vt 0.500560 0.833877
vt 0.543863 0.882209
vt 0.552422 0.837955
vt 0.500559 0.897499
vt 0.452933 0.891224
vt 0.446027 0.865340
vt 0.417202 0.080776
vt 0.333331 0.000000
vt 0.500541 0.924475
vt 0.467979 0.948868
vt 0.456147 0.909955
vt 0.417096 0.999997
vt 0.417074 0.901852
vt 0.582690 0.999998
vt 0.582690 0.666667
vt 0.635328 0.767159
vt 0.656358 0.759683
vt 0.663402 0.780721
vt 0.654572 0.738641
vt 0.635822 0.730649
vt 0.663402 0.717590
vt 0.663402 0.666664
vt 0.333363 0.924480
vt 0.387242 0.928028
vt 0.834917 0.473720
vt 0.809907 0.456116
vt 0.835986 0.427017
vt 0.806203 0.370797
vt 0.828087 0.384260
vt 0.828695 0.405304
vt 0.836010 0.363203
vt 0.806524 0.426351
vt 0.165966 0.446756
vt 0.668884 0.198263
vt 0.669112 0.093692
vt 0.680127 0.090264
vt 0.679562 0.114061
vt 0.671598 0.050922
vt 0.668497 0.029878
vt 0.000000 0.000000
vt 0.333331 0.000000
vt 0.000000 0.333333
vt 0.391614 0.893109
vt 0.419322 0.856261
vt 0.573968 0.823721
vt 0.580536 0.856264
vt 0.751828 0.499474
vt 0.785664 0.482286
vt 0.751644 0.666682
vt 0.751464 0.456299
vt 0.763876 0.447604
vt 0.249413 0.333373
vt 0.919870 0.666661
vt 0.751691 0.185947
vt 0.751691 0.333331
vt 0.701611 0.333285
vt 0.681918 0.298325
vt 0.667037 0.333333
vt 0.700577 0.303452
vt 0.839979 0.615732
vt 0.751642 0.135090
vt 0.836090 0.333335
vt 0.582754 0.333331
vt 0.751452 0.531571
vt 0.738771 0.532264
vt 0.737019 0.507471
vt 0.573858 0.802827
vt 0.663402 0.999995
vt 0.543569 0.908710
vt 0.582641 0.901850
vt 0.500555 0.999995
vt 0.500559 0.929959
vt 0.500593 1.000000
vt 0.408399 0.928036
vt 0.417074 0.949070
vt 0.417202 0.164300
vt 0.582689 0.999995
vt 0.417074 0.885939
vt 0.410143 0.906990
vt 0.333331 0.080776
vt 0.785472 0.447440
vt 0.164401 0.420836
vt 0.669613 0.303657
vt 0.677138 0.329917
vt 0.666662 0.330649
vt 0.669658 0.140392
vt 0.669944 0.282694
vt 0.670334 0.176964
vt 0.666662 0.333333
vt 0.671249 0.071967
vn 0.0000 -1.0000 0.0000
vn 0.0000 0.0000 1.0000
vn 0.0250 0.9997 0.0050
vn -0.0006 1.0000 0.0006
vn 0.0458 0.9986 0.0264
vn 0.0000 0.0000 -1.0000
vn 1.0000 0.0000 -0.0013
vn 0.9999 0.0067 -0.0120
vn 1.0000 -0.0001 -0.0003
vn 0.0000 1.0000 -0.0000
vn 1.0000 0.0000 0.0004
vn -0.0033 1.0000 0.0012
vn 0.1534 0.9856 0.0708
vn 0.1598 0.1609 0.9740
vn -0.0018 -0.0001 1.0000
vn 0.9726 0.0531 -0.2263
vn -0.1117 0.9917 0.0643
vn 0.9982 0.0566 -0.0174
vn 1.0000 -0.0024 0.0021
vn -0.0003 1.0000 0.0000
vn -0.0550 0.9985 0.0054
vn 0.0301 0.9992 0.0258
vn 0.9926 0.0859 0.0854
vn 0.2654 0.9482 0.1747
vn 1.0000 -0.0000 -0.0000
vn -0.0686 0.9975 -0.0178
vn 0.9991 0.0366 0.0220
vn 0.9970 -0.0054 -0.0777
vn 0.9986 0.0507 -0.0132
vn 0.0043 1.0000 -0.0024
vn 0.0001 1.0000 -0.0006
vn 1.0000 -0.0019 -0.0004
vn 0.1287 0.9912 0.0306
vn 0.0109 0.9996 -0.0258
vn 1.0000 0.0057 0.0006
vn 0.9876 0.1463 -0.0576
vn 1.0000 -0.0000 -0.0003
vn -0.0001 1.0000 -0.0002
vn 0.9981 0.0446 -0.0424
vn 0.0471 0.9974 -0.0540
vn 0.9362 0.3511 0.0145
vn -0.0007 1.0000 -0.0008
vn 0.9980 0.0602 -0.0208
vn 1.0000 0.0039 -0.0013
vn 0.9914 -0.0704 -0.1099
vn 0.9988 0.0356 0.0338
vn 0.9962 0.0417 -0.0768
vn 0.9998 0.0159 -0.0154
vn 0.9994 0.0281 0.0198
vn 0.0363 0.9993 -0.0082
vn 0.0014 0.9992 -0.0394
vn 0.9995 -0.0255 0.0210
vn 0.9970 -0.0316 0.0711
vn 0.9978 -0.0655 0.0034
vn 0.9997 -0.0158 -0.0206
vn 1.0000 0.0014 0.0005
vn 1.0000 0.0001 0.0000
vn 0.9064 0.1836 -0.3805
vn 0.8547 0.2206 0.4700
vn 1.0000 0.0000 0.0008
vn 1.0000 -0.0020 0.0000
vn 0.0033 1.0000 0.0079
vn 0.0002 1.0000 -0.0002
vn 1.0000 0.0026 -0.0014
vn 0.9955 0.0931 0.0151
vn 0.9842 0.1756 -0.0231
vn 0.9818 0.0472 0.1837
vn 1.0000 -0.0010 -0.0008
vn 1.0000 -0.0006 -0.0001
vn 0.0074 0.0005 1.0000
vn 0.1406 0.9898 -0.0240
vn 0.0065 1.0000 -0.0017
vn 0.3242 0.8637 0.3859
vn -1.0000 0.0000 0.0000
vn -0.0002 1.0000 0.0001
vn 0.0038 1.0000 0.0013
vn 0.9327 0.2579 0.2523
vn 0.2367 0.9404 0.2443
vn -0.0486 0.9987 0.0140
vn 0.9991 -0.0144 0.0410
vn 0.0010 0.0010 1.0000
vn 1.0000 -0.0001 -0.0001
vn 0.9916 0.1295 -0.0003
vn 0.9916 0.1293 -0.0005
vn 0.0001 1.0000 -0.0021
vn 0.0017 1.0000 -0.0000
vn 0.0323 0.9936 -0.1086
vn 0.0075 1.0000 -0.0026
vn 0.0037 1.0000 -0.0021
vn 0.0190 0.9993 -0.0334
vn -0.0593 0.9982 -0.0023
vn 0.9857 0.1619 0.0474
vn 0.4225 0.8956 0.1393
vn 1.0000 0.0009 -0.0005
vn 0.0021 1.0000 -0.0028
vn 1.0000 -0.0010 0.0022
vn 0.2713 0.9153 -0.2977
vn 0.0115 0.9998 -0.0136
vn 0.0639 0.9976 -0.0257
vn -0.0018 1.0000 0.0054
vn 0.0000 1.0000 0.0001
vn -0.0146 0.9997 0.0171
vn 0.0535 0.9983 0.0225
vn 0.9993 -0.0257 0.0259
vn 0.0387 0.9980 0.0501
vn -0.0571 0.9972 -0.0473
vn 0.9950 0.0714 0.0701
vn 0.9982 -0.0137 -0.0583
vn 1.0000 0.0077 -0.0034
vn 0.9994 -0.0048 0.0338
vn 0.0049 0.9999 -0.0100
vn 0.9998 0.0033 0.0207
vn 0.4164 0.9092 -0.0023
vn 0.9387 0.2996 -0.1702
vn 1.0000 0.0037 0.0003
vn 0.9987 0.0500 -0.0070
vn 0.0714 0.9246 -0.3741
vn 0.9965 0.0805 0.0209
vn 1.0000 -0.0021 -0.0018
vn 1.0000 0.0008 -0.0001
vn 1.0000 -0.0006 0.0002
vn 0.0447 0.9970 0.0627
vn 0.9902 0.1147 0.0794
vn 0.9995 0.0301 -0.0115
vn -0.0135 0.9979 0.0632
vn 0.0113 0.9999 0.0059
vn 1.0000 -0.0003 -0.0007
vn 0.9997 -0.0224 -0.0025
vn 0.0002 1.0000 -0.0004
vn 0.2078 0.9307 0.3010
vn 0.0000 1.0000 -0.0002
vn -0.0002 1.0000 0.0006
vn 0.1013 0.9278 -0.3590
vn 1.0000 -0.0001 -0.0000
vn 0.0004 1.0000 0.0000
vn 0.9207 0.3881 -0.0396
vn 0.3657 0.9278 -0.0740
vn 0.9971 -0.0661 -0.0382
vn 0.0025 1.0000 -0.0045
vn 0.9998 -0.0221 -0.0013
vn 0.0009 1.0000 0.0031
vn 0.9987 0.0352 -0.0362
vn -0.0051 0.9999 0.0153
vn 0.9963 0.0597 0.0625
vn 0.9948 -0.0836 0.0586
vn 0.9986 0.0226 -0.0481
vn 0.9998 -0.0075 -0.0180
vn 0.9938 0.1023 -0.0430
vn 0.9990 -0.0367 -0.0270
vn 1.0000 0.0005 0.0004
vn -0.0592 0.1124 0.9919
vn -0.0506 0.9936 0.1009
vn 0.1341 0.9910 -0.0047
vn 0.1954 0.9795 0.0488
vn 0.0429 0.9967 -0.0691
vn 0.1622 0.9816 -0.1009
vn 0.6264 0.7789 -0.0310
vn 0.9984 0.0500 0.0274
vn -0.0342 0.9994 0.0010
vn 0.1087 0.9371 -0.3317
vn 0.1080 0.9931 0.0457
vn 0.0046 1.0000 0.0004
vn 0.0004 1.0000 0.0002
vn 0.9998 -0.0111 -0.0136
vn 0.3498 0.9365 0.0258
usemtl Material
s off
f 32/1/1 4/2/1 1/3/1
f 4/4/2 3/5/2 1/6/2
f 53/7/2 2/8/2 1/6/2
f 12/9/3 8/10/3 11/11/3
f 44/12/4 5/13/4 12/9/4
f 107/14/5 37/15/5 48/16/5
f 107/17/6 31/18/6 49/19/6
f 33/20/7 46/21/7 49/22/7
f 47/23/8 46/21/8 45/24/8
f 54/25/9 51/26/9 3/27/9
f 57/28/10 3/29/10 62/30/10
f 96/31/10 81/32/10 92/33/10
f 107/34/11 83/35/11 31/36/11
f 7/37/2 1/6/2 2/8/2
f 3/5/2 53/7/2 1/6/2
f 6/38/12 9/39/12 8/10/12
f 8/10/13 10/40/13 11/11/13
f 18/41/14 13/42/14 16/43/14
f 53/7/15 16/43/15 13/42/15
f 21/44/16 23/45/16 22/46/16
f 26/47/17 69/48/17 27/49/17
f 29/50/18 30/51/18 28/52/18
f 14/53/19 29/50/19 24/54/19
f 9/39/20 6/38/20 22/55/20
f 28/56/21 12/9/21 11/11/21
f 15/57/22 20/58/22 69/48/22
f 25/59/23 24/54/23 28/52/23
f 11/11/24 25/60/24 28/56/24
f 14/53/25 21/44/25 2/61/25
f 49/19/6 31/18/6 32/62/6
f 5/63/6 49/19/6 32/62/6
f 26/47/26 38/64/26 35/65/26
f 30/51/27 29/50/27 44/66/27
f 43/67/28 45/24/28 46/21/28
f 43/67/29 46/21/29 29/50/29
f 37/15/30 49/68/30 47/69/30
f 107/14/31 49/68/31 37/15/31
f 47/23/32 49/22/32 46/21/32
f 12/9/33 30/70/33 44/12/33
f 36/71/34 37/15/34 47/69/34
f 33/20/35 44/66/35 46/21/35
f 36/72/36 47/23/36 45/24/36
f 3/5/2 52/73/2 53/7/2
f 51/26/37 52/74/37 3/27/37
f 52/75/38 50/76/38 53/77/38
f 51/26/39 56/78/39 50/79/39
f 50/76/40 56/80/40 55/81/40
f 60/82/41 59/83/41 61/84/41
f 55/81/42 53/77/42 50/76/42
f 54/25/43 59/83/43 51/26/43
f 4/4/2 62/85/2 3/5/2
f 51/26/44 50/79/44 52/74/44
f 65/86/45 64/87/45 66/88/45
f 68/89/46 67/90/46 20/91/46
f 70/92/47 72/93/47 71/94/47
f 70/92/48 71/94/48 69/95/48
f 20/91/49 67/90/49 69/95/49
f 74/96/50 73/97/50 79/98/50
f 73/97/51 58/99/51 79/98/51
f 54/25/52 57/100/52 78/101/52
f 59/83/53 54/25/53 77/102/53
f 54/25/54 78/101/54 77/102/54
f 81/103/6 82/104/6 32/62/6
f 88/105/55 85/106/55 84/107/55
f 85/106/56 86/108/56 80/109/56
f 4/110/57 82/111/57 63/112/57
f 63/112/58 90/113/58 89/114/58
f 94/115/59 93/116/59 95/117/59
f 82/111/60 96/118/60 93/116/60
f 93/116/61 96/118/61 95/117/61
f 88/119/62 91/120/62 92/33/62
f 92/33/63 81/32/63 88/119/63
f 93/116/64 63/112/64 82/111/64
f 98/121/65 99/122/65 102/123/65
f 104/124/66 106/125/66 105/126/66
f 106/125/67 104/124/67 108/127/67
f 107/34/68 104/124/68 83/35/68
f 83/35/69 104/124/69 103/128/69
f 53/7/70 64/129/70 16/43/70
f 69/48/71 71/130/71 27/49/71
f 102/131/72 40/132/72 39/133/72
f 48/16/73 106/134/73 108/135/73
f 32/136/74 1/137/74 5/138/74
f 62/30/75 87/139/75 57/28/75
f 55/81/76 73/97/76 53/77/76
f 61/84/77 59/83/77 76/140/77
f 58/99/78 61/141/78 76/142/78
f 26/47/79 27/49/79 38/64/79
f 70/92/80 73/143/80 97/144/80
f 7/37/74 5/138/74 1/137/74
f 2/8/81 53/7/81 13/42/81
f 67/90/82 53/145/82 73/143/82
f 74/146/83 83/35/83 100/147/83
f 74/146/84 100/147/84 73/143/84
f 7/37/2 2/8/2 6/148/2
f 6/38/85 8/10/85 7/149/85
f 5/13/86 7/149/86 8/10/86
f 8/10/87 9/39/87 10/40/87
f 15/57/88 14/150/88 2/151/88 13/152/88
f 15/57/89 19/153/89 20/58/89
f 6/154/25 2/61/25 21/44/25 22/46/25
f 15/57/90 17/155/90 19/153/90
f 15/57/91 13/152/91 17/155/91
f 24/54/92 25/59/92 23/45/92 21/44/92
f 23/156/93 25/60/93 11/11/93 10/40/93
f 14/53/94 24/54/94 21/44/94
f 26/47/95 14/150/95 69/48/95
f 24/54/96 29/50/96 28/52/96
f 23/156/97 10/40/97 9/39/97 22/55/97
f 26/47/98 35/65/98 34/157/98 14/150/98
f 12/9/99 28/56/99 30/70/99
f 14/150/100 15/57/100 69/48/100
f 5/13/101 44/12/101 33/158/101
f 5/63/6 33/159/6 49/19/6
f 39/133/102 40/132/102 37/15/102 35/65/102
f 36/71/103 35/65/103 37/15/103
f 34/160/104 42/161/104 41/162/104 14/53/104
f 36/71/105 34/157/105 35/65/105
f 35/65/106 38/64/106 39/133/106
f 41/162/107 42/161/107 43/67/107
f 42/161/108 45/24/108 43/67/108
f 44/66/109 29/50/109 46/21/109
f 41/162/110 43/67/110 29/50/110
f 37/15/111 40/132/111 48/16/111
f 36/72/112 45/24/112 42/161/112 34/160/112
f 60/163/113 61/141/113 58/99/113 55/81/113
f 60/82/114 56/78/114 51/26/114 59/83/114
f 3/27/115 57/100/115 54/25/115
f 68/89/116 66/88/116 64/87/116 67/90/116
f 55/81/117 56/80/117 60/163/117
f 4/110/25 63/112/25 62/164/25
f 78/101/118 80/109/118 76/140/118 77/102/118
f 64/87/119 53/145/119 67/90/119
f 69/95/120 67/90/120 70/92/120
f 70/92/121 67/90/121 73/143/121
f 74/96/122 79/98/122 75/165/122
f 59/83/123 77/102/123 76/140/123
f 80/109/124 78/101/124 84/107/124
f 75/165/125 79/98/125 80/166/125
f 76/142/126 80/166/126 79/98/126 58/99/126
f 86/108/127 85/106/127 88/105/127 81/167/127
f 78/101/128 57/100/128 84/107/128
f 31/18/6 81/103/6 32/62/6
f 83/168/129 80/166/129 31/169/129
f 94/170/130 95/171/130 92/33/130 91/120/130
f 81/103/6 31/18/6 86/172/6
f 80/166/131 86/173/131 31/169/131
f 57/28/132 87/139/132 88/119/132
f 87/139/133 89/174/133 90/175/133
f 63/112/134 89/114/134 62/164/134
f 62/30/135 89/174/135 87/139/135
f 94/115/136 90/113/136 63/112/136 93/116/136
f 81/103/6 96/176/6 82/104/6
f 92/33/10 95/171/10 96/31/10
f 94/170/137 91/120/137 87/139/137 90/175/137
f 101/177/138 97/144/138 73/143/138 100/147/138
f 88/119/139 87/139/139 91/120/139
f 57/100/140 88/105/140 84/107/140
f 74/96/141 75/165/141 83/168/141
f 80/109/142 84/107/142 85/106/142
f 75/165/143 80/166/143 83/168/143
f 97/144/144 99/122/144 98/121/144
f 101/177/145 100/147/145 83/35/145
f 102/123/146 99/122/146 103/128/146
f 103/128/147 99/122/147 101/177/147 83/35/147
f 105/126/148 102/123/148 103/128/148 104/124/148
f 99/122/149 97/144/149 101/177/149
f 108/127/150 104/124/150 107/34/150
f 65/178/151 18/41/151 16/43/151 64/129/151
f 66/179/152 19/153/152 18/180/152 65/181/152
f 98/182/153 102/131/153 39/133/153 38/64/153
f 19/153/154 68/183/154 20/58/154
f 19/153/155 66/179/155 68/183/155
f 27/49/156 71/130/156 72/184/156
f 82/185/1 4/2/1 32/1/1
f 106/134/157 48/16/157 40/132/157 105/186/157
f 97/144/158 98/121/158 72/93/158 70/92/158
f 107/14/159 48/16/159 108/135/159
f 40/132/160 102/131/160 105/186/160
f 18/180/161 19/153/161 17/155/161 13/152/161
f 73/97/162 55/81/162 58/99/162
f 5/13/163 8/10/163 12/9/163
f 29/50/164 14/53/164 41/162/164
f 72/184/165 98/182/165 38/64/165 27/49/165
