# Blender 4.0.2
# www.blender.org
mtllib floor_section_mod.mtl
o Cube
v 5.000855 0.093431 -5.001595
v 5.000855 -0.093431 -5.001595
v 5.000855 0.093431 5.001595
v 5.000855 -0.093431 5.001595
v -5.000855 0.093431 -5.001595
v -5.000855 -0.093431 -5.001595
v -5.000855 0.093431 5.001595
v -5.000855 -0.093431 5.001595
vn -0.0000 1.0000 -0.0000
vn -0.0000 -0.0000 1.0000
vn -1.0000 -0.0000 -0.0000
vn -0.0000 -1.0000 -0.0000
vn 1.0000 -0.0000 -0.0000
vn -0.0000 -0.0000 -1.0000
vt 0.094248 0.825974
vt 0.094940 0.000096
vt 0.971781 0.000096
vt 0.970174 0.822068
vt 0.854939 0.941675
vt 0.923685 0.969301
vt 0.923685 1.160594
vt 0.000096 1.107860
vt 0.000096 1.012270
vt 0.052403 1.012270
vt 0.052403 1.107860
vt 0.473847 0.999904
vt 0.094248 0.941675
vt 0.665140 0.999904
s 0
usemtl Material
f 1/1/1 5/2/1 7/3/1 3/4/1
f 4/5/2 3/4/2 7/6/2 8/7/2
f 8/8/3 7/9/3 5/10/3 6/11/3
f 6/12/4 2/13/4 4/5/4 8/14/4
f 2/13/5 1/1/5 3/4/5 4/5/5
f 6/11/6 5/10/6 1/1/6 2/13/6
